<?xml version="1.0" encoding="UTF-8"?>
<svg width="640px" height="259px" viewBox="0 0 640 259" version="1.1" xmlns="http://www.w3.org/2000/svg" xmlns:xlink="http://www.w3.org/1999/xlink">
    <!-- Generator: Sketch 52.1 (67048) - http://www.bohemiancoding.com/sketch -->
    <title>Sparkle_dark_logo</title>
    <desc>Created with Sketch.</desc>
    <g id="Page-1" stroke="none" stroke-width="1" fill="none" fill-rule="evenodd">
        <g id="Artboard-Copy-2" transform="translate(-247.000000, -321.000000)" fill-rule="nonzero">
            <g id="Sparkle_dark_logo" transform="translate(247.000000, 321.000000)">
                <path d="M510.952809,80.750355 C518.164774,74.7981797 525.442818,68.9097125 532.84358,63.1759657 C532.881338,107.089186 532.890778,151.011507 532.84358,194.933829 C525.537217,195.052144 518.221413,195.052144 510.915049,194.924727 C510.92449,156.872671 510.85841,118.811513 510.952809,80.750355 Z" id="Shape" fill="#5E72E4"></path>
                <path d="M26.2505861,82.6980403 C38.4663328,76.9186747 52.4258752,76.296559 65.7154329,77.3063699 C80.0696238,78.8391191 95.2681787,84.8438889 102.876634,97.5927545 C109.475524,107.979383 109.83346,120.493829 110.586046,132.332061 C103.372239,132.440255 96.1492543,132.575498 88.9446254,132.241899 C88.4949095,124.578154 89.0088705,116.427536 85.1174529,109.458036 C82.0153325,103.624573 75.4623324,100.667269 69.2305577,99.1886168 C57.730685,96.5919596 45.2212464,97.3943988 34.5290262,102.488535 C29.5729755,104.769627 25.837582,109.656391 25.4521114,115.07511 C25.1125301,119.07829 25.1125301,123.640472 28.122872,126.760068 C34.2078006,133.729568 44.0831901,134.811508 52.581899,137.128664 C65.8072117,140.888407 79.8493547,142.321979 92.2394811,148.579201 C99.9305375,152.257799 106.722162,158.397811 109.787571,166.386139 C114.174594,178.359614 113.614744,192.334679 107.03421,203.442601 C102.59212,211.088315 94.8368187,216.182451 86.8153592,219.689741 C73.3881334,225.658447 58.1345112,226.26253 43.7619648,224.071601 C29.5087305,221.610186 15.1637175,214.541508 7.50019497,202.045095 C0.378166809,190.504396 -0.356062898,176.547363 0.112008541,163.401786 C7.25239246,163.302608 14.3927764,163.239495 21.5239824,163.446867 C21.698362,173.310558 20.6520846,184.301271 27.0398831,192.695326 C33.8131521,200.972171 45.2120683,203.965539 55.6197744,204.208976 C65.0913376,204.704865 74.8474149,202.85655 82.9973647,197.951753 C93.4693158,191.919935 94.3779252,174.049884 83.4929698,167.991017 C77.2336615,164.321436 70.0290324,162.752622 62.9804273,161.237905 C53.2794174,159.254348 43.605941,157.090467 34.106844,154.30447 C24.7545931,151.347166 15.3564529,146.649741 9.83137431,138.345847 C4.30629576,130.89849 3.31508565,121.296268 4.22369492,112.379275 C5.28832799,99.4771343 14.557978,88.1528235 26.2505861,82.6980403 Z" id="Shape" fill="#5E72E4"></path>
                <path d="M409.797864,91.8153004 C415.898097,86.9167599 421.751765,81.7171914 427.925054,76.9098712 C428.116826,101.822189 427.806335,126.734507 428.071166,151.646824 C441.568387,140.983148 454.572476,129.717417 467.859659,118.798323 C470.75453,116.599909 473.393703,113.04231 477.466614,113.516657 C485.311074,113.644365 493.155535,113.361582 500.990863,113.717342 C500.196373,114.994429 499.420144,116.317126 498.232974,117.265819 C481.530391,131.122213 464.873468,145.033339 448.207415,158.92622 C459.202445,177.015245 475.941554,192.896733 496.8175,198.48855 C508.543096,201.891074 520.825751,200.230861 532.834442,200.705208 C532.889235,207.902505 532.889235,215.09068 532.834442,222.287977 C523.866734,222.543395 514.871631,222.652859 505.922189,222.014316 C488.626022,220.728107 471.987362,213.767983 458.389689,203.113429 C447.62296,194.867096 438.746575,184.440593 431.249132,173.21135 C430.162414,174.050578 429.084827,174.889807 428.007243,175.738158 C427.888525,191.218276 428.062036,206.689272 427.934184,222.169391 C420.81116,222.233245 413.679,222.269733 406.555976,222.142025 C406.501183,180.235328 406.52858,138.31951 406.546843,96.4128135 C406.327675,94.2600098 408.455449,93.1015095 409.797864,91.8153004 Z" id="Shape" fill="#5E72E4"></path>
                <path d="M142.349977,123.154389 C153.916128,113.122549 170.736303,110.262794 185.30345,114.538809 C196.760142,117.589214 206.301305,125.896123 211.956678,136.136771 C219.253934,149.010209 220.786358,164.334867 219.144475,178.815215 C217.374891,191.988247 211.883705,205.08865 201.950316,214.230789 C191.2872,223.981193 175.607221,226.732005 161.696827,224.017507 C155.448551,223.073334 149.674598,220.404229 144.165169,217.43553 C143.864157,231.017099 144.384087,244.607746 143.918887,258.180236 C137.287505,258.207471 130.647002,258.198393 124.015621,258.180236 C123.477448,235.983087 124.161566,213.758702 123.60515,191.552475 C123.732852,175.165623 123.103464,158.206819 128.986877,142.609804 C130.783826,134.702354 136.366227,128.338263 142.349977,123.154389 Z M170.280224,133.858045 C164.843769,134.112246 159.343462,135.946121 155.357336,139.74097 C147.403327,147.457771 143.727334,158.787849 144.101318,169.700312 C144.457059,177.580527 145.515162,185.814807 149.619868,192.732691 C153.159037,199.069546 160.164403,202.791767 167.260985,203.536212 C175.005198,204.543935 183.989944,203.400033 189.380792,197.199357 C195.446636,189.754914 198.037162,180.022668 198.511484,170.590014 C198.812496,159.986223 196.377036,148.710616 189.25309,140.51265 C184.619333,135.147205 177.121402,133.458587 170.280224,133.858045 Z" id="Shape" fill="#5E72E4"></path>
                <path d="M250.270563,121.570672 C258.405341,114.735759 269.305407,112.645293 279.605878,112.618026 C288.921946,112.827072 298.631773,114.908449 306.166958,120.770842 C313.782686,127.042239 316.843295,137.249165 317.219159,146.883486 C317.469737,164.897847 317.192312,182.921297 317.416043,200.935658 C321.478955,200.953836 325.54187,200.926569 329.613734,201.00837 C327.170615,206.870763 325.711904,213.514809 321.326822,218.277435 C317.523431,222.112985 311.670686,224.021671 306.47123,222.322032 C303.142147,221.431311 300.860113,218.668261 298.640722,216.205147 C291.839368,220.704193 284.187844,223.921692 276.079915,224.794235 C263.560052,226.330272 249.653072,224.039849 240.113277,215.096291 C233.786228,209.433856 230.636126,200.753879 230.752465,192.301126 C230.510838,184.639115 232.166431,176.74079 236.623108,170.442126 C241.491446,163.298186 249.581479,159.108166 257.78785,157.363081 C268.526831,155.14537 279.579031,155.808866 290.389606,154.245561 C292.286827,153.827468 294.470419,153.782023 296.054419,152.509565 C296.671909,148.410435 296.412385,144.029545 295.043164,140.103106 C293.119096,135.385924 287.633269,134.286157 283.149742,134.031666 C276.375235,133.659018 268.804254,133.81353 263.228933,138.294398 C259.434494,141.257406 258.244257,146.165456 257.206155,150.655413 C250.270563,150.837193 243.334971,150.782659 236.408329,150.68268 C236.990023,139.630479 241.759921,128.650989 250.270563,121.570672 Z M267.640865,177.249773 C262.942561,177.649688 257.859443,178.649476 254.30663,182.012399 C250.547987,187.138584 250.279512,195.382291 255.004664,199.999493 C258.646968,203.571463 264.061205,203.898666 268.849,204.016823 C276.598966,204.125891 284.912725,201.762756 289.942147,195.427736 C294.899977,189.910724 296.707705,182.312335 296.421334,174.995705 C286.845742,175.93187 277.243303,176.677167 267.640865,177.249773 Z" id="Shape" fill="#5E72E4"></path>
                <path d="M587.288413,112.80339 C601.071684,111.694067 616.09653,115.494864 625.71423,126.069808 C634.05437,135.489965 638.822732,147.892566 639.713428,160.449744 C640.325219,166.423724 639.839385,172.434075 639.353551,178.398963 C614.728998,178.55354 590.104446,178.317127 565.479897,178.517169 C566.883414,187.782748 570.788076,198.466807 580.180854,202.085747 C587.945188,204.786314 596.852134,204.740849 604.463522,201.521993 C610.17656,199.157861 613.586392,193.674893 616.087534,188.255575 C623.375033,188.119183 630.662532,188.11009 637.950033,188.27376 C635.691808,200.349019 628.674214,211.615018 618.174816,218.01636 C604.211607,226.627257 586.136809,227.327404 571.093969,221.226124 C561.503261,217.361678 554.503661,208.978102 550.041193,199.803451 C545.23684,189.892281 543.599404,178.671747 543.896301,167.714904 C544.040251,154.948591 547.117196,141.700359 555.088461,131.525498 C562.87079,121.396101 574.431824,113.812693 587.288413,112.80339 Z M577.400806,138.608801 C571.417858,142.973353 567.936052,149.947542 566.154666,157.030846 C583.5367,157.212702 600.918738,157.167238 618.300775,157.049031 C616.609354,148.147165 611.778011,138.781565 602.862072,135.526337 C594.566916,132.6621 584.562348,133.053091 577.400806,138.608801 Z" id="Shape" fill="#5E72E4"></path>
                <path d="M361.395324,118.92989 C371.682307,112.677338 383.890458,111.945558 395.452399,113.038597 C395.557191,120.180401 395.574655,127.322205 395.443667,134.464009 C388.204355,134.649269 380.493484,133.296866 373.743195,136.779768 C368.189272,139.456787 364.984416,145.449974 362.914793,151.2579 C360.417275,158.362651 361.019822,166.050974 360.984891,173.489196 C360.958695,190.71845 361.028554,207.947704 360.949961,225.176959 C354.173476,225.2418 347.396991,225.278852 340.620506,225.149169 C340.59431,188.449005 340.59431,151.739578 340.620506,115.039414 C347.327132,114.807838 354.042487,114.696681 360.740378,115.085729 C360.958695,116.364028 361.168275,117.651591 361.395324,118.92989 Z" id="Shape" fill="#5E72E4"></path>
                <path d="M209.469528,44.2781116 C224,34.1699571 222.077253,14.9150215 227.378541,0 C230.097854,15.9313305 230.784549,36.5596567 246.688412,45.6515021 C260.779399,51.6669528 276.353648,52.6283262 291.433476,54.2214592 C275.584549,56.8034335 258.334764,56.2815451 244.133906,64.6592275 C227.296137,78.0085837 228.971674,103.004292 227.488412,121.902146 C224.741631,103.663519 226.060086,81.0025751 212.243777,66.4995708 C197.960515,55.8695279 178.842918,57.0781116 162.060086,54.1939914 C178.018884,52.3536481 195.021459,52.0240343 209.469528,44.2781116 Z" id="Shape" fill="#69E781"></path>
            </g>
        </g>
    </g>
</svg>